<svg width="776" height="1465" viewBox="0 0 776 1465" fill="none" xmlns="http://www.w3.org/2000/svg">
<rect x="44" y="19" width="700" height="1438" fill="white"/>
<g filter="url(#filter0_d)">
<path d="M502 246.198C347.2 383.236 132.167 216.889 44 116.586C-44.1667 16.283 44 0 44 0H771.5V1457H697.5C803.9 1222 611.5 1066.43 502 1018.01C292 879.411 393.167 790.918 470 763.997C523.833 747.931 638.9 673.203 668.5 502.818C705.5 289.837 695.5 74.9017 502 246.198Z" fill="url(#paint0_linear)"/>
</g>
<path d="M312.117 209.527H334.512V218H301.57V166.812H312.117V209.527ZM338.344 198.629C338.344 194.855 339.07 191.492 340.523 188.539C341.977 185.586 344.062 183.301 346.781 181.684C349.523 180.066 352.699 179.258 356.309 179.258C361.441 179.258 365.625 180.828 368.859 183.969C372.117 187.109 373.934 191.375 374.309 196.766L374.379 199.367C374.379 205.203 372.75 209.891 369.492 213.43C366.234 216.945 361.863 218.703 356.379 218.703C350.895 218.703 346.512 216.945 343.23 213.43C339.973 209.914 338.344 205.133 338.344 199.086V198.629ZM348.504 199.367C348.504 202.977 349.184 205.742 350.543 207.664C351.902 209.562 353.848 210.512 356.379 210.512C358.84 210.512 360.762 209.574 362.145 207.699C363.527 205.801 364.219 202.777 364.219 198.629C364.219 195.09 363.527 192.348 362.145 190.402C360.762 188.457 358.816 187.484 356.309 187.484C353.824 187.484 351.902 188.457 350.543 190.402C349.184 192.324 348.504 195.312 348.504 199.367ZM379.16 198.699C379.16 192.863 380.543 188.164 383.309 184.602C386.098 181.039 389.848 179.258 394.559 179.258C398.73 179.258 401.977 180.688 404.297 183.547L404.719 179.961H413.93V216.734C413.93 220.062 413.168 222.957 411.645 225.418C410.145 227.879 408.023 229.754 405.281 231.043C402.539 232.332 399.328 232.977 395.648 232.977C392.859 232.977 390.141 232.414 387.492 231.289C384.844 230.188 382.84 228.758 381.48 227L385.98 220.812C388.512 223.648 391.582 225.066 395.191 225.066C397.887 225.066 399.984 224.34 401.484 222.887C402.984 221.457 403.734 219.418 403.734 216.77V214.73C401.391 217.379 398.309 218.703 394.488 218.703C389.918 218.703 386.215 216.922 383.379 213.359C380.566 209.773 379.16 205.027 379.16 199.121V198.699ZM389.32 199.438C389.32 202.883 390.012 205.59 391.395 207.559C392.777 209.504 394.676 210.477 397.09 210.477C400.184 210.477 402.398 209.316 403.734 206.996V191C402.375 188.68 400.184 187.52 397.16 187.52C394.723 187.52 392.801 188.516 391.395 190.508C390.012 192.5 389.32 195.477 389.32 199.438ZM432.492 218H422.297V179.961H432.492V218ZM421.699 170.117C421.699 168.594 422.203 167.34 423.211 166.355C424.242 165.371 425.637 164.879 427.395 164.879C429.129 164.879 430.512 165.371 431.543 166.355C432.574 167.34 433.09 168.594 433.09 170.117C433.09 171.664 432.562 172.93 431.508 173.914C430.477 174.898 429.105 175.391 427.395 175.391C425.684 175.391 424.301 174.898 423.246 173.914C422.215 172.93 421.699 171.664 421.699 170.117ZM450.246 179.961L450.562 184.355C453.281 180.957 456.926 179.258 461.496 179.258C465.527 179.258 468.527 180.441 470.496 182.809C472.465 185.176 473.473 188.715 473.52 193.426V218H463.359V193.672C463.359 191.516 462.891 189.957 461.953 188.996C461.016 188.012 459.457 187.52 457.277 187.52C454.418 187.52 452.273 188.738 450.844 191.176V218H440.684V179.961H450.246Z" fill="white"/>
<defs>
<filter id="filter0_d" x="0.814819" y="0" width="774.685" height="1465" filterUnits="userSpaceOnUse" color-interpolation-filters="sRGB">
<feFlood flood-opacity="0" result="BackgroundImageFix"/>
<feColorMatrix in="SourceAlpha" type="matrix" values="0 0 0 0 0 0 0 0 0 0 0 0 0 0 0 0 0 0 127 0"/>
<feOffset dy="4"/>
<feGaussianBlur stdDeviation="2"/>
<feColorMatrix type="matrix" values="0 0 0 0 0 0 0 0 0 0 0 0 0 0 0 0 0 0 0.25 0"/>
<feBlend mode="normal" in2="BackgroundImageFix" result="effect1_dropShadow"/>
<feBlend mode="normal" in="SourceGraphic" in2="effect1_dropShadow" result="shape"/>
</filter>
<linearGradient id="paint0_linear" x1="-177" y1="759.438" x2="738.548" y2="581.144" gradientUnits="userSpaceOnUse">
<stop stop-color="#1340D9"/>
<stop offset="1" stop-color="#5B2884"/>
</linearGradient>
</defs>
</svg>
